<svg width="25" height="25" viewBox="0 0 25 25" fill="none" xmlns="http://www.w3.org/2000/svg">
<path fill-rule="evenodd" clip-rule="evenodd" d="M12.5 0C5.59088 0 0 5.58777 0 12.5C0 15.1068 0.794957 17.518 2.20703 19.5898C2.25959 19.6677 2.29391 19.7565 2.30744 19.8495C2.32096 19.9425 2.31335 20.0373 2.28516 20.127L1.01563 24.375L5.17578 22.9395C5.26471 22.9098 5.35915 22.9006 5.45213 22.9124C5.5451 22.9243 5.63422 22.9569 5.71289 23.0078C7.6615 24.2722 9.99424 25 12.5 25C19.4124 25 25 19.4124 25 12.5C25 5.58758 19.4124 0 12.5 0ZM7.38281 5.44922L9.6582 9.209L8.71094 10.1465C8.6145 10.2438 8.5527 10.3701 8.53506 10.506C8.51741 10.6418 8.5449 10.7797 8.61328 10.8984C10.0589 13.4018 11.7716 15.3493 14.1699 16.4062C14.2848 16.4573 14.4125 16.4725 14.5362 16.4499C14.6599 16.4272 14.7739 16.3678 14.8633 16.2793L15.8691 15.2734L19.541 17.5684C19.1344 18.4834 18.6044 19.0283 17.998 19.3457C17.2957 19.7135 16.4379 19.7831 15.459 19.5801C13.5011 19.1741 11.1362 17.6354 9.20898 15.6641C7.28176 13.6928 5.79036 11.2957 5.41016 9.34568C5.22006 8.37068 5.30404 7.531 5.66406 6.86525C5.97406 6.29203 6.50062 5.80128 7.38281 5.44922Z" fill="#34B989"/>
</svg>
