<svg width="50" height="50" viewBox="0 0 50 50" fill="none" xmlns="http://www.w3.org/2000/svg">
<path fill-rule="evenodd" clip-rule="evenodd" d="M25 0C11.1818 0 0 11.1755 0 25C0 30.2136 1.58991 35.0361 4.41406 39.1797C4.51918 39.3355 4.58782 39.513 4.61487 39.6989C4.64193 39.8849 4.62669 40.0746 4.57031 40.2539L2.03125 48.75L10.3516 45.8789C10.5294 45.8197 10.7183 45.8012 10.9043 45.8249C11.0902 45.8486 11.2684 45.9137 11.4258 46.0156C15.323 48.5444 19.9885 50 25 50C38.8248 50 50 38.8247 50 25C50 11.1752 38.8248 0 25 0ZM14.7656 10.8984L19.3164 18.418L17.4219 20.293C17.229 20.4876 17.1054 20.7402 17.0701 21.0119C17.0348 21.2836 17.0898 21.5594 17.2266 21.7969C20.1177 26.8035 23.5432 30.6986 28.3398 32.8125C28.5697 32.9146 28.825 32.945 29.0724 32.8997C29.3198 32.8544 29.5478 32.7355 29.7266 32.5586L31.7383 30.5469L39.082 35.1368C38.2689 36.9669 37.2088 38.0565 35.9961 38.6914C34.5914 39.4269 32.8758 39.5662 30.918 39.1602C27.0023 38.3482 22.2724 35.2707 18.418 31.3281C14.5635 27.3856 11.5807 22.5914 10.8203 18.6914C10.4401 16.7414 10.6081 15.062 11.3281 13.7305C11.9481 12.5841 13.0012 11.6026 14.7656 10.8984Z" fill="#34B989"/>
</svg>
