<svg width="185" height="45" viewBox="0 0 185 45" fill="none" xmlns="http://www.w3.org/2000/svg">
<path d="M29.4067 20.6C31.0014 20.6 32.2079 20.986 33.0261 21.7579C33.8442 22.5158 34.2533 23.6386 34.2533 25.1263C34.2533 26.6 33.8096 27.7368 32.9221 28.5368C32.0484 29.3368 30.8281 29.7368 29.2611 29.7368H23V15H33.1717V17.8632H25.9745V20.6H29.4067ZM29.1571 26.8737C30.5577 26.8737 31.258 26.2772 31.258 25.0842C31.258 24.4947 31.1054 24.0596 30.8004 23.7789C30.4953 23.4982 29.9961 23.3579 29.3027 23.3579H25.9745V26.8737H29.1571Z" fill="#494ECA"/>
<path d="M44.7843 18.1579H47.7589L47.7381 29.7368H44.7635V28.1789C43.8899 29.386 42.6973 29.9895 41.1857 29.9895C39.6742 29.9895 38.4261 29.4281 37.4416 28.3053C36.457 27.1684 35.9647 25.7158 35.9647 23.9474C35.9647 22.1789 36.457 20.7333 37.4416 19.6105C38.44 18.4737 39.6811 17.9053 41.1649 17.9053C42.6903 17.9053 43.8968 18.5298 44.7843 19.7789V18.1579ZM41.8514 27.1263C42.6973 27.1263 43.3976 26.8316 43.9523 26.2421C44.507 25.6526 44.7843 24.8877 44.7843 23.9474C44.7843 23.007 44.507 22.2421 43.9523 21.6526C43.3976 21.0632 42.6973 20.7684 41.8514 20.7684C41.0055 20.7684 40.3121 21.0632 39.7713 21.6526C39.2305 22.2421 38.96 23.007 38.96 23.9474C38.96 24.8877 39.2305 25.6526 39.7713 26.2421C40.326 26.8316 41.0193 27.1263 41.8514 27.1263Z" fill="#494ECA"/>
<path d="M58.2419 18.1579H61.2164V29.7368H58.2419V25.2737H53.1041V29.7368H50.1295V18.1579H53.1041V22.4316H58.2419V18.1579Z" fill="#494ECA"/>
<path d="M75.0587 29.7368H71.2521L66.5719 24.6842V29.7368H63.5973V18.1579H66.5719V22.9789L70.9193 18.1579H74.7051L69.484 23.6737L75.0587 29.7368Z" fill="#494ECA"/>
<path d="M83.3771 17.9053C84.8609 17.9053 86.102 18.4737 87.1005 19.6105C88.0989 20.7333 88.5982 22.1789 88.5982 23.9474C88.5982 25.7158 88.0989 27.1684 87.1005 28.3053C86.1159 29.4281 84.8748 29.9895 83.3771 29.9895C81.8656 29.9895 80.6591 29.386 79.7577 28.1789V35H76.7832V18.1579H79.7577V19.7789C80.6453 18.5298 81.8517 17.9053 83.3771 17.9053ZM82.6907 27.1263C83.5227 27.1263 84.2092 26.8316 84.75 26.2421C85.3047 25.6526 85.582 24.8877 85.582 23.9474C85.582 23.007 85.3116 22.2421 84.7708 21.6526C84.23 21.0632 83.5366 20.7684 82.6907 20.7684C81.8448 20.7684 81.1445 21.0632 80.5898 21.6526C80.0351 22.2421 79.7577 23.007 79.7577 23.9474C79.7577 24.8877 80.0351 25.6526 80.5898 26.2421C81.1445 26.8316 81.8448 27.1263 82.6907 27.1263Z" fill="#494ECA"/>
<path d="M92.1312 19.6316C93.2822 18.4807 94.6898 17.9053 96.3538 17.9053C98.0179 17.9053 99.4254 18.4807 100.576 19.6316C101.741 20.7825 102.324 22.2211 102.324 23.9474C102.324 25.6877 101.748 27.1333 100.597 28.2842C99.4601 29.4211 98.0457 29.9895 96.3538 29.9895C94.6759 29.9895 93.2614 29.414 92.1104 28.2632C90.9733 27.1123 90.4048 25.6737 90.4048 23.9474C90.4048 22.2211 90.9802 20.7825 92.1312 19.6316ZM98.4547 21.6526C97.9 21.0632 97.1997 20.7684 96.3538 20.7684C95.5079 20.7684 94.8007 21.0632 94.2321 21.6526C93.6774 22.2421 93.4001 23.007 93.4001 23.9474C93.4001 24.8877 93.6774 25.6526 94.2321 26.2421C94.8007 26.8316 95.5079 27.1263 96.3538 27.1263C97.1997 27.1263 97.9 26.8316 98.4547 26.2421C99.0233 25.6526 99.3076 24.8877 99.3076 23.9474C99.3076 23.007 99.0233 22.2421 98.4547 21.6526Z" fill="#494ECA"/>
<path d="M113.583 18.1579V21H110.047V29.7368H107.073V21H103.557V18.1579H113.583Z" fill="#494ECA"/>
<path d="M120.771 29.9895C119.065 29.9895 117.644 29.414 116.506 28.2632C115.383 27.1123 114.822 25.6737 114.822 23.9474C114.822 22.2211 115.383 20.7825 116.506 19.6316C117.644 18.4807 119.072 17.9053 120.791 17.9053C122.234 17.9053 123.489 18.3263 124.556 19.1684C125.638 19.9965 126.283 21.1263 126.491 22.5579H123.433C123.267 21.9544 122.941 21.4912 122.455 21.1684C121.984 20.8456 121.429 20.6842 120.791 20.6842C119.89 20.6842 119.169 20.986 118.628 21.5895C118.087 22.193 117.824 22.9789 117.838 23.9474C117.824 24.9158 118.087 25.7018 118.628 26.3053C119.183 26.9088 119.897 27.2105 120.771 27.2105C121.409 27.2105 121.97 27.0491 122.455 26.7263C122.941 26.4035 123.267 25.9333 123.433 25.3158H126.491C126.269 26.7895 125.617 27.9404 124.536 28.7684C123.468 29.5825 122.213 29.9895 120.771 29.9895Z" fill="#494ECA"/>
<path d="M137.553 18.1579V21H134.017V29.7368H131.042V21H127.527V18.1579H137.553Z" fill="#494ECA"/>
<path d="M147.338 23.4842C148.711 23.8912 149.397 24.8596 149.397 26.3895C149.397 27.5263 149.016 28.3684 148.253 28.9158C147.49 29.4632 146.485 29.7368 145.237 29.7368H139.184V18.1579H144.717C145.993 18.1579 146.991 18.3754 147.712 18.8105C148.447 19.2456 148.815 20.0035 148.815 21.0842C148.815 21.6456 148.69 22.1088 148.44 22.4737C148.191 22.8246 147.823 23.1614 147.338 23.4842ZM145.819 21.6526C145.819 21.2596 145.715 20.9719 145.507 20.7895C145.313 20.607 144.966 20.5158 144.467 20.5158H142.158V22.7474H144.467C144.966 22.7474 145.313 22.6632 145.507 22.4947C145.715 22.3123 145.819 22.0316 145.819 21.6526ZM145.008 27.3789C145.507 27.3789 145.861 27.2807 146.069 27.0842C146.277 26.8737 146.381 26.5509 146.381 26.1158C146.381 25.6947 146.27 25.386 146.048 25.1895C145.84 24.993 145.493 24.8947 145.008 24.8947H142.158V27.3789H145.008Z" fill="#494ECA"/>
<path d="M152.808 19.6316C153.959 18.4807 155.366 17.9053 157.03 17.9053C158.694 17.9053 160.102 18.4807 161.253 19.6316C162.418 20.7825 163 22.2211 163 23.9474C163 25.6877 162.425 27.1333 161.274 28.2842C160.136 29.4211 158.722 29.9895 157.03 29.9895C155.352 29.9895 153.938 29.414 152.787 28.2632C151.65 27.1123 151.081 25.6737 151.081 23.9474C151.081 22.2211 151.657 20.7825 152.808 19.6316ZM159.131 21.6526C158.576 21.0632 157.876 20.7684 157.03 20.7684C156.184 20.7684 155.477 21.0632 154.908 21.6526C154.354 22.2421 154.076 23.007 154.076 23.9474C154.076 24.8877 154.354 25.6526 154.908 26.2421C155.477 26.8316 156.184 27.1263 157.03 27.1263C157.876 27.1263 158.576 26.8316 159.131 26.2421C159.7 25.6526 159.984 24.8877 159.984 23.9474C159.984 23.007 159.7 22.2421 159.131 21.6526Z" fill="#494ECA"/>
<rect x="0.5" y="0.5" width="184" height="44" stroke="#494ECA"/>
</svg>
