<svg width="75" height="67" viewBox="0 0 75 67" fill="none" xmlns="http://www.w3.org/2000/svg">
<path d="M69.2857 12.881V9.54762V9.30952C69.0476 4.30952 62.8571 0.5 55 0.5C46.9048 0.5 40.7143 4.54762 40.7143 9.78572V23.3571C40.7143 23.5952 40.7143 23.8333 40.7143 23.8333C40.7143 24.7857 40.9524 25.7381 41.6667 26.4524C40.9524 27.4048 40.7143 28.5952 40.7143 29.7857V57.6429C40.7143 62.881 46.9048 66.9286 55 66.9286C63.0952 66.9286 69.2857 62.881 69.2857 57.6429V34.5476C72.8571 32.881 75 30.0238 75 27.1667V20.2619C75 17.1667 72.8571 14.5476 69.2857 12.881ZM55 2.64286C61.4286 2.64286 66.9048 5.7381 66.9048 9.54762C66.9048 10.0238 66.9048 10.5 66.6667 10.9762C65.4762 14.0714 60.4762 16.2143 55 16.2143C52.619 16.2143 50.4762 15.7381 48.5714 15.0238C45.2381 13.8333 43.0952 11.6905 43.0952 9.30952C42.8571 5.7381 48.3333 2.64286 55 2.64286ZM42.8571 14.5476C44.0476 15.7381 45.7143 16.6905 47.619 17.4048C49.7619 18.3571 52.3809 18.5952 55 18.5952C60 18.5952 64.5238 16.9286 66.9048 14.5476V16.2143C66.9048 20.0238 61.4286 23.1191 55 23.1191C48.5714 23.1191 43.0952 20.0238 43.0952 16.2143V14.5476H42.8571ZM42.8571 21.2143C45.4762 23.5952 49.7619 25.2619 54.7619 25.2619C59.7619 25.2619 64.2857 23.5952 66.6667 21.2143V22.881C66.6667 23.8333 66.4286 24.5476 65.7143 25.5C65.4762 25.9762 65 26.2143 64.5238 26.6905C61.1905 29.5476 54.2857 30.5 49.0476 28.8333C48.8095 28.8333 48.8095 28.8333 48.5714 28.5952L47.8571 28.3571C45.9524 27.6429 44.5238 26.6905 43.8095 25.5C43.3333 24.7857 42.8571 23.8333 42.8571 22.881V21.2143ZM43.0952 28.119C43.3333 28.3571 43.5714 28.3571 43.8095 28.5952C44.0476 28.8333 44.2857 29.0714 44.5238 29.0714C45.4762 29.7857 46.4286 30.2619 47.619 30.7381C47.8571 30.9762 48.0952 31.4524 48.3333 31.6905C48.5714 31.9286 48.8095 32.1667 49.2857 32.6429C49.5238 32.881 49.7619 33.119 50 33.119C50.7143 33.5952 51.6667 34.0714 52.619 34.5476C53.0952 34.7857 53.8095 35.0238 54.5238 35.2619C55 35.5 55.7143 35.5 56.4286 35.7381C56.6667 35.7381 56.6667 35.7381 56.9048 35.7381C57.1429 35.7381 57.3809 35.7381 57.619 35.9762C56.9048 35.9762 55.9524 36.2143 55.2381 36.2143C48.8095 36.2143 43.3333 33.119 43.3333 29.3095C42.8571 29.0714 43.0952 28.5952 43.0952 28.119ZM66.9048 57.4048C66.9048 61.2143 61.4286 64.3095 55 64.3095C48.5714 64.3095 43.0952 61.2143 43.0952 57.4048V55.5C45.7143 57.881 50 59.5476 55 59.5476C60 59.5476 64.5238 57.881 66.9048 55.5V57.4048ZM66.9048 50.2619C66.9048 54.0714 61.4286 57.1667 55 57.1667C48.5714 57.1667 43.0952 54.0714 43.0952 50.2619V48.3571C45.7143 50.7381 50 52.4048 55 52.4048C60 52.4048 64.5238 50.7381 66.9048 48.3571V50.2619ZM66.9048 43.3571C66.9048 47.1667 61.4286 50.2619 55 50.2619C48.5714 50.2619 43.0952 47.1667 43.0952 43.3571V41.4524C45.7143 43.8333 50 45.5 55 45.5C60 45.5 64.5238 43.8333 66.9048 41.4524V43.3571ZM66.9048 36.4524C66.9048 40.2619 61.4286 43.3571 55 43.3571C48.5714 43.3571 43.0952 40.2619 43.0952 36.4524V34.5476C45.7143 36.9286 50 38.5952 55 38.5952C58.8095 38.5952 62.3809 37.6429 65 35.9762C65.7143 35.7381 66.1905 35.7381 66.9048 35.5V36.4524ZM72.8571 27.1667C72.8571 29.3095 70.9524 31.4524 67.8571 32.6429C66.9048 33.1191 65.7143 33.3571 64.5238 33.5952C63.3333 33.8333 62.1429 34.0714 60.9524 34.0714C60.4762 34.0714 59.7619 34.0714 59.2857 34.0714C58.0952 34.0714 57.1428 33.8333 55.9524 33.5952C55.7143 33.5952 55.4762 33.3571 55.2381 33.3571C55 33.1191 54.5238 33.119 54.2857 32.881C54.0476 32.6429 53.5714 32.6429 53.3333 32.4048C52.8571 32.1667 52.3809 32.1667 52.1429 31.9286C57.3809 32.6429 62.619 31.4524 65.9524 28.8333C66.6667 28.5952 67.1428 28.3571 67.8571 28.3571C69.5238 27.881 70.7143 27.1667 71.9048 26.2143C72.1429 25.9762 72.1429 25.9762 72.3809 25.7381C72.619 25.7381 72.619 25.5 72.619 25.5V27.1667H72.8571ZM72.1428 22.1667C72.1428 22.4048 71.9048 22.4048 71.9048 22.6429C71.9048 22.881 71.6667 22.881 71.6667 23.1191C70.9524 23.8333 70.2381 24.7857 69.0476 25.2619C69.0476 25.2619 69.0476 25.2619 68.8095 25.2619H68.5714C68.8095 24.7857 69.0476 24.0714 69.0476 23.5952C69.0476 23.3571 69.0476 23.1191 69.0476 23.1191V15.5C71.1905 16.6905 72.619 18.5952 72.619 20.2619C72.8571 20.7381 72.619 21.4524 72.1428 22.1667Z" fill="#494ECA"/>
<path d="M34.2857 42.8811V29.3096C34.2857 24.0715 28.0952 20.0239 20 20.0239C12.1429 20.0239 5.95238 23.8335 5.71428 28.8335V32.4049C2.14286 34.0715 0 36.9287 0 39.7858V46.6906C0 49.7858 2.14286 52.4049 5.71428 54.0715V56.2144C5.95238 61.2144 12.1429 65.0239 20 65.0239C27.8571 65.0239 34.0476 61.2144 34.2857 56.2144V55.9763V49.5477C34.2857 49.3096 34.2857 49.3096 34.2857 49.0715C34.2857 47.8811 34.0476 46.9287 33.3333 45.7382C33.8095 44.7858 34.0476 44.0715 34.2857 43.1192C34.2857 43.1192 34.2857 43.1192 34.2857 42.8811ZM7.85714 29.0715C8.09524 25.5001 13.5714 22.643 19.7619 22.643C26.1905 22.643 31.6667 25.7382 31.6667 29.5477C31.6667 31.9287 29.5238 34.0715 26.1905 35.262C24.2857 35.9763 21.9048 36.4525 19.7619 36.4525C14.2857 36.4525 9.28571 34.0715 8.09524 30.9763C7.85714 30.5001 7.85714 30.262 7.85714 29.7858V29.5477C7.85714 29.3096 7.85714 29.0715 7.85714 29.0715ZM5.47619 35.262V42.643C5.47619 42.8811 5.47619 43.1192 5.47619 43.1192C5.47619 43.5954 5.71428 44.3096 5.95238 44.7858C5.95238 44.7858 5.95238 44.7858 5.71428 44.7858H5.47619C4.28571 44.0715 3.33333 43.3573 2.61905 42.4049C2.38095 42.1668 2.38095 41.9287 2.38095 41.9287C2.14286 41.4525 1.90476 40.7382 1.90476 40.0239C1.90476 38.3573 3.33333 36.6906 5.47619 35.262ZM1.90476 47.1668V45.262L2.14286 45.5001C2.38095 45.7382 2.61905 45.7382 2.61905 45.9763C3.33333 46.4525 4.04762 46.9287 5 47.4049C5.47619 47.643 5.95238 47.8811 6.66667 48.1192C7.38095 48.3573 7.85714 48.5954 8.57143 48.5954C11.9048 51.2144 17.1429 52.4049 22.381 51.6906H22.1429C21.6667 51.9287 21.1905 52.1668 20.7143 52.4049C20.2381 52.643 19.7619 52.643 19.5238 52.8811C19.2857 52.8811 19.2857 52.8811 19.0476 53.1192C18.5714 53.3573 18.3333 53.3573 17.8571 53.3573C17.619 53.3573 17.619 53.3573 17.381 53.3573C16.9048 53.3573 16.1905 53.5954 15.7143 53.5954C15 53.5954 14.5238 53.5954 13.8095 53.5954H13.5714C12.619 53.5954 11.4286 53.5954 10.4762 53.3573C10.2381 53.3573 10.2381 53.3573 10 53.3573C9.7619 53.3573 9.7619 53.3573 9.52381 53.1192C8.57143 52.8811 7.61905 52.643 6.90476 52.4049C3.80952 51.4525 1.90476 49.3096 1.90476 47.1668ZM31.9048 56.2144C31.9048 60.0239 26.4286 63.1192 20 63.1192C13.5714 63.1192 8.33333 60.262 8.09524 56.4525V55.262C8.57143 55.5001 9.28571 55.5001 10 55.7382C12.619 57.4049 16.1905 58.3573 20.2381 58.3573C25.2381 58.3573 29.7619 56.6906 32.1429 54.3096V56.2144H31.9048ZM31.9048 49.7858C31.6667 53.3573 26.1905 56.2144 20 56.2144C19.0476 56.2144 18.3333 56.2144 17.619 55.9763C17.8571 55.9763 18.0952 55.9763 18.3333 55.7382C18.5714 55.7382 18.5714 55.7382 18.8095 55.7382C20 55.5001 21.1905 55.0239 22.381 54.5477C22.8571 54.3096 23.0952 54.3096 23.3333 54.0715C23.8095 53.8335 24.2857 53.5953 24.7619 53.1192C25 52.8811 25.4762 52.643 25.7143 52.4049C26.4286 51.9287 26.9048 51.2144 27.3809 50.5001C27.8571 50.262 28.3333 50.0239 28.8095 49.7858C28.8095 49.7858 29.0476 49.7858 29.0476 49.5477C29.5238 49.3096 30 49.0715 30.4762 48.8334C30.7143 48.5954 30.9524 48.5954 31.1905 48.3573C31.4286 48.1192 31.6667 48.1192 31.9048 47.8811C32.1429 48.3573 32.1429 48.5954 32.1429 49.0715C31.9048 49.5477 31.9048 49.5477 31.9048 49.7858ZM31.9048 42.8811C31.9048 43.8334 31.6667 44.5477 30.9524 45.5001C30 46.9287 28.3333 47.8811 25.9524 48.8334C25.7143 48.8334 25.7143 48.8334 25.4762 49.0715C20.2381 50.7382 13.3333 49.7858 10 46.9287C9.52381 46.4525 9.04762 46.2144 8.80952 45.7382C8.33333 45.0239 7.85714 44.0715 7.85714 43.1192V41.4525C10.4762 43.8334 14.7619 45.5001 19.7619 45.5001C25 45.5001 29.2857 43.8334 31.9048 41.4525V42.8811ZM31.9048 35.9763C31.9048 39.7858 26.4286 42.8811 19.7619 42.8811C13.5714 42.8811 8.09524 40.0239 7.85714 36.4525V34.5477C10.4762 37.1668 15 38.5954 19.7619 38.5954C22.381 38.5954 25 38.1192 27.1429 37.4049C29.0476 36.6906 30.7143 35.7382 31.9048 34.5477V35.9763Z" fill="#494ECA"/>
</svg>
