<svg width="98" height="62" viewBox="0 0 98 62" fill="none" xmlns="http://www.w3.org/2000/svg">
<path d="M48.75 0.779053C41.8748 0.779053 36.277 6.3759 36.277 13.25C36.277 20.124 41.8748 25.7209 48.75 25.7209C55.6252 25.7209 61.223 20.124 61.223 13.25C61.223 6.3759 55.6252 0.779053 48.75 0.779053ZM48.75 3.04649C54.3996 3.04649 58.9552 7.60132 58.9552 13.25C58.9552 18.8986 54.3996 23.4535 48.75 23.4535C43.1004 23.4535 38.5448 18.8986 38.5448 13.25C38.5448 7.60132 43.1004 3.04649 48.75 3.04649ZM19.2684 9.84882C13.6457 9.84882 9.06327 14.4305 9.06327 20.0523C9.06327 25.6741 13.6457 30.2558 19.2684 30.2558C24.8912 30.2558 29.4736 25.6741 29.4736 20.0523C29.4736 14.4305 24.8912 9.84882 19.2684 9.84882ZM78.2316 9.84882C72.6088 9.84882 68.0264 14.4305 68.0264 20.0523C68.0264 25.6741 72.6088 30.2558 78.2316 30.2558C83.8543 30.2558 88.4367 25.6741 88.4367 20.0523C88.4367 14.4305 83.8543 9.84882 78.2316 9.84882ZM19.2684 12.1163C23.6655 12.1163 27.2058 15.6559 27.2058 20.0523C27.2058 24.4487 23.6655 27.9883 19.2684 27.9883C14.8713 27.9883 11.3311 24.4487 11.3311 20.0523C11.3311 15.6559 14.8713 12.1163 19.2684 12.1163ZM78.2316 12.1163C82.6287 12.1163 86.1689 15.6559 86.1689 20.0523C86.1689 24.4487 82.6287 27.9883 78.2316 27.9883C73.8345 27.9883 70.2942 24.4487 70.2942 20.0523C70.2942 15.6559 73.8345 12.1163 78.2316 12.1163ZM48.75 32.5232C42.6581 32.5232 37.0474 35.4878 32.6273 40.4238C31.9073 41.2278 31.2299 42.1059 30.5721 43.0101C27.5949 40.6818 24.1208 39.3256 20.4378 39.3256C10.6648 39.3256 2.65309 48.0879 0.027453 60.6182C-0.00957499 60.7834 -0.0091408 60.9548 0.0287234 61.1198C0.0665877 61.2848 0.140921 61.4391 0.246268 61.5716C0.351616 61.7042 0.485305 61.8114 0.637522 61.8855C0.789739 61.9596 0.956623 61.9988 1.12593 62H45.3483C45.4985 62.0021 45.6477 61.9743 45.7872 61.9183C45.9266 61.8623 46.0535 61.7791 46.1605 61.6736C46.2675 61.5681 46.3525 61.4425 46.4105 61.3038C46.4685 61.1652 46.4983 61.0165 46.4983 60.8662C46.4983 60.716 46.4685 60.5673 46.4105 60.4286C46.3525 60.29 46.2675 60.1643 46.1605 60.0589C46.0535 59.9534 45.9266 59.8702 45.7872 59.8142C45.6477 59.7582 45.4985 59.7304 45.3483 59.7325H25.753C27.3939 52.4476 30.4297 46.2653 34.3281 41.9118C38.418 37.3446 43.3897 34.7907 48.75 34.7907C54.1103 34.7907 59.0886 37.3448 63.1719 41.9118C67.0639 46.265 70.073 52.4471 71.7116 59.7325H52.1517C52.0015 59.7304 51.8523 59.7582 51.7128 59.8142C51.5734 59.8702 51.4465 59.9534 51.3395 60.0589C51.2325 60.1643 51.1475 60.29 51.0895 60.4286C51.0315 60.5673 51.0017 60.716 51.0017 60.8662C51.0017 61.0165 51.0315 61.1652 51.0895 61.3038C51.1475 61.4425 51.2325 61.5681 51.3395 61.6736C51.4465 61.7791 51.5734 61.8623 51.7128 61.9183C51.8523 61.9743 52.0015 62.0021 52.1517 62H96.3741C96.5434 61.9988 96.7103 61.9596 96.8625 61.8855C97.0147 61.8114 97.1484 61.7042 97.2537 61.5716C97.3591 61.4391 97.4334 61.2848 97.4713 61.1198C97.5091 60.9548 97.5096 60.7834 97.4725 60.6182C94.8469 48.0879 86.8352 39.3256 77.0622 39.3256C73.3672 39.3256 69.8775 40.7041 66.8925 43.0455C66.23 42.1326 65.5624 41.2347 64.8373 40.4238C60.424 35.4876 54.8419 32.5232 48.75 32.5232ZM20.4378 41.593C23.6123 41.593 26.6162 42.7823 29.2964 44.9233C26.6551 49.094 24.6248 54.0999 23.4143 59.7325H2.68505C5.44382 48.7306 12.3849 41.593 20.4378 41.593ZM77.0622 41.593C85.1151 41.593 92.0562 48.7306 94.8149 59.7325H74.0503C72.8411 54.1071 70.8395 49.0912 68.2036 44.9233C70.8814 42.7884 73.8926 41.593 77.0622 41.593Z" fill="#494ECA"/>
</svg>
